<svg xmlns="http://www.w3.org/2000/svg" fill="none" viewBox="0 0 1000 1000" class="d-none"><path fill="url(#a)" d="M913.8 838.699L889.6 853.999C879.6 860.299 866.4 857.399 860.1 847.399L755.7 682.699L816 644.499L920.4 809.199C926.7 819.199 923.8 832.399 913.8 838.699Z"/><path fill="#f14a00" d="M822.3 640.5L816 644.5L755.7 682.7L749.4 686.7C739.4 693 726.2 690.1 719.9 680.1L702.9 653.2C723.7 648.3 744.1 639.9 763.2 627.8C782.3 615.7 798.6 600.8 811.9 584.1L829 611C835.2 621 832.3 634.2 822.3 640.5Z" class="colorB1B8BC svgShape"/><path fill="url(#b)" d="M823.9 356.799C765.8 265.199 644.4 237.999 552.8 295.999C461.2 353.999 434 475.399 492.1 567.099C538.1 639.599 623.7 671.799 702.8 653.199C723.6 648.299 744 639.899 763.1 627.799C782.2 615.699 798.5 600.799 811.8 584.099C862.4 520.399 869.9 429.299 823.9 356.799ZM764.1 548.9C763.5 549.6 763 550.3 762.4 550.9C761.8 551.6 761.2 552.3 760.6 552.9C760.1 553.5 759.5 554.099 758.9 554.699C758.8 554.799 758.7 554.899 758.6 554.999C758.1 555.599 757.5 556.099 757 556.699C757 556.799 756.9 556.8 756.8 556.9C756.3 557.5 755.7 558.099 755.1 558.599C755 558.699 754.9 558.799 754.9 558.799C754.3 559.399 753.7 559.999 753.1 560.599C752.6 561.099 752.1 561.599 751.6 561.999C751.4 562.199 751.1 562.499 750.8 562.699C750.3 563.199 749.7 563.699 749.1 564.199L749 564.299C748.5 564.799 748 565.199 747.4 565.699C746.6 566.399 745.7 567.199 744.9 567.799C744.4 568.299 743.8 568.699 743.2 569.099C742.9 569.399 742.5 569.6 742.2 569.9C740.2 571.5 738.1 572.999 736 574.499C734.5 575.599 732.9 576.599 731.3 577.599C730.5 578.099 729.7 578.599 728.9 579.099C728.2 579.499 727.5 579.899 726.8 580.299C726.6 580.399 726.5 580.499 726.3 580.599C725.8 580.899 725.3 581.2 724.8 581.4C724.3 581.7 723.8 581.999 723.2 582.299C722.8 582.499 722.5 582.7 722.1 582.9C721.3 583.4 720.4 583.799 719.6 584.199C718.8 584.599 718 585 717.1 585.4C715.2 586.4 713.2 587.199 711.3 587.999C710.8 588.199 710.3 588.399 709.8 588.599C709.1 588.899 708.5 589.2 707.8 589.4C707.6 589.5 707.5 589.499 707.3 589.599C706.5 589.899 705.8 590.199 705 590.499C703 591.199 700.9 591.899 698.9 592.599C698.2 592.799 697.5 593.099 696.8 593.299C696.6 593.399 696.3 593.499 696 593.499C695.3 593.699 694.6 593.899 693.9 594.099C693.7 594.099 693.5 594.199 693.3 594.299C692.7 594.499 692.1 594.599 691.4 594.799C691.3 594.799 691.2 594.9 691.1 594.9C635.3 608.9 574.4 586.499 541.9 535.199C501.3 471.199 520.3 386.499 584.3 345.899C648.3 305.399 733 324.299 773.6 388.299C806.3 439.699 800.6 504.3 764.1 548.9Z"/><path fill="url(#c)" d="M764.1 548.899C755.1 559.899 744.1 569.699 731.4 577.799C718.7 585.899 705.2 591.599 691.3 594.999C635.5 608.999 574.6 586.599 542.1 535.299C501.5 471.299 520.5 386.599 584.5 345.999C648.5 305.499 733.2 324.399 773.8 388.399C806.3 439.699 800.6 504.399 764.1 548.899Z"/><path fill="#f14a00" d="M666.6 385.1C667.1 387.9 667.1 390.6 666.7 393.2 659.8 391.7 652.6 391.6 645.4 392.9 638.2 394.2 631.5 396.9 625.6 400.7 624.3 398.4 623.4 395.8 622.9 393.1 620.6 380.4 628.5 368.3 640.6 366.1 652.6 363.9 664.3 372.4 666.6 385.1zM684.601 534.499C680.601 536.299 676.401 537.599 671.901 538.399 667.401 539.199 663.001 539.499 658.601 539.199 662.401 524.199 663.801 508.599 663.601 493.199 669.001 507.599 675.801 521.799 684.601 534.499zM560.3 462.899C563.8 459.999 567.2 457.199 570.7 454.299 572.4 452.899 574.2 451.399 575.9 449.999 577.5 448.599 579.1 447.199 580.9 446.099 582.9 444.799 585.2 444.899 587.5 445.099 589.6 445.299 591.7 445.599 593.7 445.999 594.6 446.099 595.5 446.299 596.3 446.399 595.9 448.699 595.5 451.099 595.3 453.499 594.8 453.399 594.4 453.299 593.9 453.299 591.9 452.999 589.9 452.699 587.9 452.399 586.4 452.199 585.1 451.799 584 452.599 580.7 455.099 577.6 457.899 574.4 460.499 571.2 463.099 568.1 465.699 564.9 468.299 561.4 471.299 556.7 465.899 560.3 462.899zM584.401 491.6C580.401 498.7 576.801 506 573.001 513.2 572.101 514.9 569.401 515.1 568.001 514.1 566.301 512.9 566.201 510.8 567.101 509.1 569.201 505.1 571.301 501.2 573.401 497.2 574.401 495.3 575.401 493.4 576.401 491.5 577.301 489.8 578.101 487.8 579.301 486.3 580.801 484.3 582.701 483.4 585.001 482.8 587.201 482.2 589.401 481.6 591.601 481.1 593.401 480.6 595.201 480.2 597.001 479.8 597.501 482.2 598.101 484.5 598.801 486.8 597.001 487.2 595.201 487.6 593.501 488 591.501 488.5 589.501 489 587.501 489.5 586.801 489.7 585.801 489.8 585.301 490.3 584.801 490.6 584.601 491.3 584.401 491.6zM607.5 506.199C608.8 508.299 610.1 510.199 611.6 512.199 608.5 513.899 605.4 515.699 602.3 517.499 600.3 518.699 598.4 519.899 596.5 521.099 595.7 521.599 595 522.099 594.2 522.599 594 522.799 593.6 523.099 593.4 523.299 593.4 523.299 593.4 523.399 593.4 523.499 593.1 524.499 593.2 525.799 593.2 526.899 593.1 528.099 593.1 529.299 593 530.499 592.9 532.899 592.7 535.199 592.6 537.599 592.4 542.299 592.1 547.099 591.9 551.799 591.7 556.399 584.5 555.799 584.7 551.099 585 545.899 585.2 540.599 585.5 535.399 585.6 532.799 585.8 530.199 585.9 527.699 586 525.399 585.9 522.799 586.8 520.599 587.8 518.099 590 516.799 592.2 515.399 594.3 514.099 596.4 512.699 598.5 511.499 601.4 509.699 604.4 507.899 607.5 506.199zM606.801 419.699C605.501 421.699 604.301 423.799 603.201 425.899 603.001 425.799 602.801 425.699 602.701 425.699 600.901 424.899 599.001 424.099 597.201 423.399 595.801 422.799 594.601 421.999 593.201 422.699 585.701 425.999 578.401 429.699 571.001 433.099 566.801 435.099 563.701 428.599 567.901 426.599 572.001 424.699 576.001 422.799 580.101 420.899 582.001 419.999 584.001 419.099 585.901 418.199 587.901 417.199 589.901 416.099 592.001 415.499 594.301 414.799 596.401 415.399 598.601 416.199 600.601 416.999 602.701 417.799 604.701 418.699 605.301 418.999 606.101 419.399 606.801 419.699zM705.2 402.4C704.5 402.9 703.8 403.6 703.1 404.3 701.6 405.7 700.2 407 698.7 408.4 698.2 408.8 697.8 409.3 697.4 409.7 695.6 408 693.8 406.5 691.9 405 692.9 404 693.9 403.1 694.9 402.1 697.8 399.3 701.1 395.1 705.4 394.8 707.6 394.6 709.9 395 712.1 395.2 714.3 395.4 716.6 395.6 718.8 395.7 723.2 396.1 727.5 396.4 731.9 396.7 736.5 397.1 735.9 404.2 731.3 403.9 723.2 403.3 715 402.4 706.9 401.9 706.1 402 705.7 402 705.2 402.4zM759.9 519.3C761.7 523.5 755.3 526.6 753.4 522.4 751.5 517.9 749.5 513.5 747.6 509 746.6 506.8 745.7 504.6 744.8 502.5 744.3 501.4 743.8 500.3 743.4 499.2 743 498.3 742.7 497.2 742.1 496.4 741.9 496.1 741.6 496 740.8 495.8 739.9 495.6 739 495.4 738.1 495.2 735.9 494.7 733.6 494.3 731.4 493.9 727.4 493.2 723.4 492.5 719.4 492 720.1 489.7 720.6 487.4 721 485 725.2 485.6 729.3 486.2 733.4 487 735.8 487.5 738.2 488 740.6 488.5 743 489 745.4 489.5 747.2 491.4 748.9 493.2 749.7 495.8 750.6 498 751.6 500.4 752.7 502.7 753.7 505.1 755.8 509.9 757.9 514.6 759.9 519.3zM738.9 423.699C743.1 425.199 747.4 426.599 751.6 428.099 756 429.599 753.5 436.299 749.1 434.899 745.1 433.499 741.2 432.199 737.2 430.799 733.4 429.499 729.6 427.999 725.7 426.899 724.4 426.499 723.2 427.399 721.9 428.099 720.1 429.099 718.2 430.099 716.4 431.099 715.5 431.599 714.7 432.099 713.8 432.599 712.8 430.399 711.6 428.299 710.4 426.299 711.7 425.499 713 424.799 714.3 424.099 716.2 422.999 718.1 421.999 720.1 420.999 722.1 419.999 724.1 419.299 726.3 419.699 728.5 420.099 730.6 420.999 732.7 421.699 734.9 422.299 736.9 422.999 738.9 423.699zM762.501 478.8C761.501 480.3 759.001 481 757.501 479.7 751.401 474.3 745.401 468.8 739.201 463.5 738.701 463.1 738.301 462.6 737.701 462.5 737.001 462.3 736.001 462.6 735.301 462.6 733.301 462.8 731.201 463 729.101 463.3 726.701 463.6 724.401 463.9 722.101 464.3 721.901 461.9 721.701 459.6 721.301 457.2 723.901 456.8 726.401 456.5 729.001 456.2 733.101 455.7 738.301 454.4 742.101 456.8 743.801 457.9 745.201 459.4 746.601 460.7 748.301 462.2 749.901 463.7 751.601 465.2 754.901 468.1 758.201 471 761.401 473.9 763.001 475.1 763.701 477 762.501 478.8z" class="colorB1B8BC svgShape"/><path fill="#f14a00" d="M663.7 493.2C663.8 508.6 662.5 524.3 658.7 539.2C640.5 538.1 623.5 528 611.6 512.2C610.2 510.3 608.8 508.3 607.5 506.2C603.9 500.3 600.9 493.8 598.7 486.7C598 484.4 597.4 482.1 596.9 479.7C596.7 478.8 596.5 477.8 596.3 476.9C594.8 468.9 594.5 461 595.3 453.4C595.5 451 595.9 448.6 596.3 446.3C597.7 439 600 432.1 603.2 425.8C604.3 423.6 605.5 421.6 606.8 419.6C611.8 411.9 618.1 405.4 625.6 400.6C631.5 396.8 638.2 394.1 645.4 392.8C645.4 392.9 645.7 444.2 663.7 493.2Z" class="colorB1B8BC svgShape"/><path fill="#f14a00" d="M721 454.299C721.2 455.199 721.3 456.099 721.5 457.099C721.9 459.499 722.1 461.899 722.3 464.199C722.8 471.299 722.3 478.299 721.1 484.999C720.7 487.399 720.1 489.699 719.5 491.999C714 511.199 701.5 526.899 684.7 534.499C675.9 521.799 669.1 507.599 663.8 493.199C645.8 444.199 645.5 392.899 645.5 392.899C652.7 391.599 659.9 391.799 666.8 393.199C675.8 395.099 684.4 399.199 692 404.999C693.9 406.399 695.7 407.999 697.5 409.699C702.5 414.399 707 419.999 710.7 426.299C711.9 428.299 713 430.399 714.1 432.599C717.2 439.299 719.6 446.499 721 454.299Z" class="colorB1B8BC svgShape"/><path fill="url(#d)" d="M627.5 656C647.7 659.2 668.3 659.2 688.8 656H627.5ZM619.2 269.3H639.7V266.3C632.8 266.9 626 267.9 619.2 269.3Z"/><path fill="url(#e)" d="M559.6 463.7V467.3C558.9 466.3 558.8 464.9 559.6 463.7Z"/><path fill="url(#f)" d="M645.4 392.899C645.2 392.899 645 392.999 644.7 392.999C645 392.999 645.2 392.999 645.4 392.899Z"/><path fill="url(#g)" d="M740.3 455.8H731.4C734.3 455.3 737.5 454.9 740.3 455.8Z"/><path fill="url(#h)" d="M780.9 142.6H101.9C87.7002 142.6 76.2002 154.1 76.2002 168.3V318.7C76.2002 332.9 87.7002 344.4 101.9 344.4H500.5C505.5 337.8 510.9 331.4 516.7 325.4H363C348.8 325.4 337.3 313.9 337.3 299.7V187.3C337.3 173.1 348.8 161.6 363 161.6H756.2C770.4 161.6 781.9 173.1 781.9 187.3V299.6C781.9 302.6 781.4 305.5 780.4 308.2C788.7 314.8 796.6 322.2 803.9 330.3C805.7 326.8 806.7 322.9 806.7 318.7V168.3C806.6 154.1 795.1 142.6 780.9 142.6ZM670.3 325.3H645.5C625.5 327.1 605.7 333.4 587.4 344.3H728.7C710.9 333.6 690.8 327.1 670.3 325.3Z"/><path fill="url(#i)" d="M756.2 161.6H363C348.8 161.6 337.3 173.1 337.3 187.3V299.6C337.3 313.8 348.8 325.3 363 325.3H516.8C527.4 314.4 539.4 304.5 552.8 296C573.7 282.7 596.2 273.9 619.1 269.3H559.5V251.1H639.6V266.3C689.8 261.6 740.4 276.4 780.3 308.2C781.3 305.5 781.8 302.6 781.8 299.6V187.3C781.8 173.1 770.3 161.6 756.2 161.6ZM501.6 289.4C501 290.4 499.4 292.6 496 292.6H386.9C383.5 292.6 381.9 290.4 381.3 289.4C380.7 288.4 379.6 285.9 381.3 282.9L435.9 188.4C437.6 185.5 440.4 185.2 441.5 185.2C442.6 185.2 445.4 185.5 447.1 188.4L501.7 282.9C503.3 285.9 502.1 288.5 501.6 289.4ZM758.1 226.8H559.6V208.6H758.1V226.8ZM645.4 325.3H670.2C662.1 324.5 653.7 324.5 645.4 325.3Z"/><path fill="url(#j)" d="M501.6 283L447 188.5C445.3 185.6 442.5 185.3 441.4 185.3C440.3 185.3 437.5 185.6 435.8 188.5L381.3 283C379.6 285.9 380.7 288.5 381.3 289.5C381.9 290.5 383.5 292.7 386.9 292.7H496C499.4 292.7 501 290.5 501.6 289.5C502.1 288.4 503.2 285.9 501.6 283ZM448.3 214.4L446.8 259.5H436L434.5 214.4H448.3ZM446.6 278.2C445.3 279.5 443.5 280.1 441.4 280.1C439.3 280.1 437.5 279.5 436.2 278.2C434.9 276.9 434.2 275.3 434.2 273.3C434.2 271.3 434.9 269.7 436.2 268.4C437.5 267.1 439.3 266.5 441.4 266.5C443.5 266.5 445.3 267.1 446.6 268.4C447.9 269.7 448.6 271.3 448.6 273.3C448.6 275.3 448 277 446.6 278.2Z"/><path fill="#f14a00" d="M448.3 214.399L446.8 259.499H436L434.5 214.399H448.3zM448.6 273.4C448.6 275.4 447.9 277 446.6 278.3 445.3 279.6 443.5 280.2 441.4 280.2 439.3 280.2 437.5 279.6 436.2 278.3 434.9 277 434.2 275.4 434.2 273.4 434.2 271.4 434.9 269.8 436.2 268.5 437.5 267.2 439.3 266.6 441.4 266.6 443.5 266.6 445.3 267.2 446.6 268.5 447.9 269.8 448.6 271.4 448.6 273.4z" class="colorB1B8BC svgShape"/><path fill="url(#k)" d="M758.1 208.6H559.6V226.8H758.1V208.6Z"/><path fill="url(#l)" d="M639.7 251.1H559.6V269.3H639.7V251.1Z"/><path fill="url(#m)" d="M645.4 392.9C645.2 392.9 645 393 644.8 393C645 393 645.2 393 645.4 392.9ZM645.4 392.9C645.2 392.9 645 393 644.8 393C645 393 645.2 393 645.4 392.9ZM774.6 389.8H667C667 391 666.9 392.1 666.7 393.3C675.7 395.2 684.3 399.3 691.9 405.1C692.9 404.1 693.9 403.2 694.8 402.2C697.7 399.4 701 395.2 705.3 394.9C707.5 394.7 709.8 395.1 712 395.3C714.2 395.5 716.5 395.7 718.7 395.8C723.1 396.2 727.4 396.5 731.8 396.8C736.4 397.2 735.8 404.3 731.1 404C723 403.4 714.8 402.5 706.7 402C706 402 705.7 402 705.1 402.4C704.4 402.9 703.7 403.7 703 404.3C701.5 405.6 700.1 407 698.6 408.4C698.5 408.5 698.3 408.7 698.2 408.8H756.1C770.3 408.8 781.8 420.3 781.8 434.5V520.9C801.1 480.2 800 430.8 774.6 389.8ZM644.8 393.1C645 393.1 645.2 393 645.5 393C645.2 393 645 393 644.8 393.1ZM645.4 392.9C645.2 392.9 645 393 644.8 393C645 393 645.2 393 645.4 392.9ZM645.4 392.9C645.2 392.9 645 393 644.8 393C645 393 645.2 393 645.4 392.9ZM622.9 393.1C622.7 392 622.6 390.9 622.5 389.8H541.3C537.5 395.9 534.3 402.3 531.5 408.8H615.5C618.6 405.7 621.9 403 625.6 400.7C624.3 398.4 623.4 395.8 622.9 393.1ZM495.6 572.4H363C348.8 572.4 337.3 560.9 337.3 546.7V434.5C337.3 420.3 348.8 408.8 363 408.8H468.9C470.7 402.4 472.8 396 475.3 389.8H101.9C87.7002 389.8 76.2002 401.3 76.2002 415.5V565.9C76.2002 580.1 87.7002 591.6 101.9 591.6H510.2C505.1 585.5 500.1 579.2 495.6 572.4ZM576.7 572.4C587.8 580.6 600.1 587 612.9 591.4H703C703.7 591.2 704.4 590.9 705.1 590.7C705.9 590.4 706.6 590.1 707.4 589.8C707.6 589.7 707.7 589.7 707.9 589.6C708.6 589.4 709.2 589.1 709.9 588.8C710.4 588.6 710.9 588.4 711.4 588.2C713.4 587.4 715.3 586.5 717.2 585.6C718 585.2 718.8 584.8 719.7 584.4C720.5 584 721.4 583.5 722.2 583.1C722.6 582.9 723 582.7 723.3 582.5C723.8 582.2 724.3 581.9 724.9 581.6C725.4 581.3 725.9 581 726.4 580.8C726.6 580.7 726.7 580.6 726.9 580.5C727.6 580.1 728.3 579.7 729 579.3C729.8 578.8 730.6 578.3 731.4 577.8C733 576.8 734.6 575.8 736.1 574.7C737.1 574 738.2 573.2 739.2 572.5L576.7 572.4Z"/><path fill="url(#n)" d="M756.2 408.8H698.3C698 409.1 697.7 409.4 697.4 409.7C702.4 414.5 706.9 420 710.6 426.3C711.9 425.5 713.2 424.8 714.5 424.1C716.4 423 718.3 422 720.3 421C722.3 420 724.3 419.3 726.6 419.7C728.8 420.1 730.9 421 733 421.7C735 422.4 737 423.1 739.1 423.8C743.3 425.3 747.6 426.7 751.8 428.2C756.2 429.7 753.7 436.5 749.3 435C745.3 433.6 741.4 432.3 737.4 430.9C733.6 429.6 729.8 428.1 725.9 427C724.6 426.6 723.4 427.5 722.1 428.2C720.3 429.2 718.4 430.2 716.6 431.2C715.7 431.7 714.9 432.2 714 432.7C717.2 439.4 719.6 446.7 721 454.4C721.1 454.9 721.2 455.4 721.2 455.8H758V470.7C759.2 471.7 760.4 472.8 761.5 473.8C763 475.1 763.6 477 762.4 478.8C761.4 480.3 758.9 481 757.4 479.7C755.3 477.8 753.2 475.9 751 474H722.1C721.9 477.8 721.5 481.4 720.8 485C724.9 485.6 729.1 486.3 733.2 487C735.6 487.5 738 488 740.4 488.5C742.8 489 745.2 489.5 747 491.4C748.7 493.2 749.5 495.8 750.4 498C751.4 500.4 752.5 502.7 753.5 505.1C755.6 509.8 757.6 514.5 759.7 519.3C761.6 523.5 755.1 526.6 753.2 522.4C751.3 517.9 749.3 513.5 747.4 509C746.4 506.8 745.5 504.7 744.6 502.5C744.1 501.4 743.6 500.3 743.2 499.2C742.8 498.3 742.5 497.2 741.9 496.4C741.7 496.1 741.4 496 740.6 495.8C739.7 495.6 738.8 495.4 737.9 495.2C735.7 494.7 733.4 494.3 731.2 493.9C727.2 493.2 723.2 492.5 719.2 492C713.7 511.2 701.2 526.9 684.4 534.5C680.4 536.3 676.2 537.6 671.7 538.4C667.2 539.2 662.8 539.4 658.4 539.2C641.9 538.2 626.4 529.8 614.7 516.4H603.7C603.1 516.7 602.5 517.1 601.9 517.5C599.9 518.7 598 519.9 596.1 521.1C595.3 521.6 594.5 522.1 593.8 522.6C593.6 522.8 593.2 523.1 593 523.3C593 523.3 593 523.4 593 523.5C592.7 524.5 592.8 525.8 592.8 526.9C592.7 528.1 592.7 529.3 592.6 530.4C592.5 532.8 592.4 535.2 592.2 537.5C592 542.3 591.7 547 591.5 551.8C591.3 556.4 584.1 555.8 584.3 551.1C584.6 545.9 584.8 540.6 585.1 535.4C585.2 532.8 585.4 530.2 585.5 527.7C585.6 525.4 585.5 522.8 586.4 520.6C587.2 518.7 588.6 517.5 590.2 516.4H559.2V498.2H572.4C572.6 497.9 572.7 497.6 572.9 497.2C573.9 495.3 574.9 493.4 575.9 491.5C576.8 489.8 577.6 487.8 578.8 486.3C580.3 484.3 582.2 483.4 584.5 482.8C586.7 482.2 588.9 481.6 591.1 481.1C592.9 480.6 594.7 480.2 596.5 479.8C596.3 478.9 596.1 477.9 595.9 477C595.7 476 595.6 475 595.4 474H559.2V455.8H568.6C569.2 455.3 569.7 454.9 570.3 454.4C572 453 573.8 451.5 575.5 450.1C577.1 448.7 578.7 447.3 580.5 446.2C582.5 444.9 584.8 445 587.1 445.2C589.2 445.4 591.3 445.7 593.3 446.1C594.2 446.2 595.1 446.4 595.9 446.5C597.3 439.2 599.6 432.3 602.8 426C602.6 425.9 602.4 425.8 602.2 425.8C600.4 425 598.5 424.2 596.7 423.5C595.3 422.9 594.1 422.1 592.7 422.8C585.2 426.1 577.9 429.8 570.5 433.2C566.3 435.2 563.2 428.7 567.4 426.7C571.5 424.8 575.5 422.9 579.6 421C581.5 420.1 583.5 419.2 585.4 418.3C587.4 417.3 589.4 416.2 591.5 415.6C593.8 414.9 595.9 415.5 598.1 416.3C600.1 417.1 602.2 417.9 604.2 418.8C604.9 419.1 605.7 419.4 606.4 419.8C608.9 415.8 611.9 412.2 615.2 408.9H531.2C514.5 448.9 516.9 496.1 541.8 535.4C551.2 550.2 563 562.7 576.4 572.5H738.9C739.9 571.7 741 571 742 570.2C742.3 569.9 742.7 569.7 743 569.4C743.5 569 744.1 568.5 744.6 568.1C745.5 567.4 746.3 566.7 747.2 566C747.7 565.5 748.3 565.1 748.8 564.6L748.9 564.5C749.5 564 750 563.5 750.6 563C750.8 562.8 751.1 562.5 751.3 562.3C751.8 561.8 752.3 561.4 752.8 560.9C752.8 560.9 752.8 560.9 752.9 560.9C753.5 560.3 754.1 559.7 754.7 559.1C754.8 559 754.9 558.9 754.9 558.9C755.5 558.4 756 557.8 756.6 557.2C756.6 557.2 756.7 557.1 756.8 557C757.3 556.4 757.9 555.9 758.4 555.3C758.5 555.2 758.6 555.1 758.7 555C759.3 554.4 759.8 553.8 760.4 553.2C761 552.5 761.6 551.9 762.2 551.2C762.8 550.5 763.4 549.9 763.9 549.1C771 540.4 776.9 531 781.6 521.1V434.7C781.9 420.3 770.4 408.8 756.2 408.8ZM598.7 486.8C596.9 487.2 595.2 487.6 593.4 488C591.4 488.5 589.4 489 587.4 489.6C586.7 489.8 585.7 489.9 585.2 490.4C584.9 490.7 584.7 491.4 584.4 491.7C583.2 493.9 582 496.1 580.8 498.3H603.1C601.4 494.6 599.9 490.8 598.7 486.8ZM593.9 453.3C591.9 453 589.9 452.7 587.9 452.4C586.4 452.2 585.1 451.8 583.9 452.6C582.6 453.6 581.3 454.6 580 455.7H595C595 455 595.1 454.2 595.2 453.5C594.8 453.5 594.4 453.4 593.9 453.3ZM492.1 567.1C486.5 558.3 481.7 549.1 477.6 539.8H386.8C383.4 539.8 381.8 537.6 381.2 536.6C380.6 535.6 379.5 533.1 381.2 530.1L435.8 435.6C437.5 432.7 440.3 432.4 441.4 432.4C442.5 432.4 445.3 432.7 447 435.6L461.5 460.8C461.6 443.2 464.1 425.7 468.8 408.8H363C348.8 408.8 337.3 420.3 337.3 434.5V546.8C337.3 561 348.8 572.5 363 572.5H495.6C494.4 570.7 493.2 568.9 492.1 567.1Z" opacity=".62"/><path fill="url(#o)" d="M461.5 460.799L447 435.599C445.3 432.699 442.5 432.399 441.4 432.399C440.3 432.399 437.5 432.699 435.8 435.599L381.2 530.099C379.5 532.999 380.6 535.599 381.2 536.599C381.8 537.599 383.4 539.799 386.8 539.799H477.6C466.6 514.299 461.3 487.399 461.5 460.799ZM448.3 461.599L446.8 506.699H436L434.5 461.599H448.3ZM446.6 525.399C445.3 526.699 443.5 527.299 441.4 527.299C439.3 527.299 437.5 526.599 436.2 525.399C434.9 524.099 434.2 522.499 434.2 520.499C434.2 518.499 434.9 516.899 436.2 515.599C437.5 514.299 439.3 513.699 441.4 513.699C443.5 513.699 445.3 514.299 446.6 515.599C447.9 516.899 448.6 518.499 448.6 520.499C448.6 522.499 448 524.099 446.6 525.399Z"/><path fill="#f14a00" d="M448.3 461.6L446.8 506.6H436L434.5 461.6H448.3zM448.6 520.499C448.6 522.499 447.9 524.099 446.6 525.399 445.3 526.699 443.5 527.299 441.4 527.299 439.3 527.299 437.5 526.599 436.2 525.399 434.9 524.099 434.2 522.499 434.2 520.499 434.2 518.499 434.9 516.899 436.2 515.599 437.5 514.299 439.3 513.699 441.4 513.699 443.5 513.699 445.3 514.299 446.6 515.599 448 516.899 448.6 518.499 448.6 520.499z" class="colorB1B8BC svgShape"/><path fill="url(#p)" d="M569 455.8C566.1 458.2 563.2 460.6 560.3 463C560 463.2 559.8 463.5 559.6 463.8V455.8H569Z"/><path fill="url(#q)" d="M595.8 474H559.6V467.4C560.6 469.1 563 470.1 565 468.4C568.2 465.8 571.3 463.2 574.5 460.6C576.4 459 578.3 457.4 580.2 455.8H595.2C594.7 461.7 594.9 467.8 595.8 474Z"/><path fill="url(#r)" d="M731.4 455.8C730.6 455.9 729.9 456 729.2 456.1C726.6 456.4 724.1 456.7 721.5 457.1C721.4 456.7 721.4 456.2 721.3 455.8H731.4Z"/><path fill="url(#s)" d="M722.3 474C722.5 470.8 722.4 467.5 722.2 464.3C724.5 463.9 726.9 463.6 729.2 463.3C731.2 463.1 733.3 462.8 735.3 462.7C736 462.6 737 462.4 737.7 462.6C738.2 462.7 738.7 463.2 739.1 463.6C743.1 467 747.1 470.6 751 474.1H722.3V474Z"/><path fill="url(#t)" d="M758.1 455.8V470.7C756 468.8 753.9 467 751.8 465.1C750.1 463.6 748.5 462.1 746.8 460.6C745.3 459.3 743.9 457.8 742.3 456.7C741.7 456.3 741 456 740.4 455.8H758.1Z"/><path fill="url(#u)" d="M607.4 506.2C604.4 507.9 601.3 509.6 598.4 511.4C596.3 512.7 594.2 514 592.1 515.3C591.6 515.6 591.1 516 590.5 516.3H559.5V498.1H572.7C570.8 501.7 568.9 505.4 566.9 509C566 510.7 566.1 512.8 567.8 514C569.2 515 571.9 514.8 572.8 513.1C575.4 508.1 578 503.1 580.6 498.1H602.9C604.4 501 605.8 503.7 607.4 506.2Z"/><path fill="url(#v)" d="M615 516.5H604C606.5 515 609 513.6 611.5 512.2C612.6 513.7 613.8 515.1 615 516.5Z"/><path fill="url(#w)" d="M781.8 723.999V793.899C781.8 808.099 770.3 819.599 756.1 819.599H363C348.8 819.599 337.3 808.099 337.3 793.899V681.599C337.3 667.399 348.8 655.899 363 655.899H627.5C607.1 652.699 587.2 646.299 568.7 636.899H101.9C87.7002 636.899 76.2002 648.399 76.2002 662.599V812.999C76.2002 827.199 87.7002 838.699 101.9 838.699H780.9C795.1 838.699 806.6 827.199 806.6 812.999V763.099L781.8 723.999ZM702.8 653.199C698.1 654.299 693.4 655.199 688.8 655.999H704.6L702.8 653.199Z"/><path fill="url(#x)" d="M755.7 682.699L749.4 686.699C739.4 692.999 726.2 690.099 719.9 680.099L704.5 655.999H363C348.8 655.999 337.3 667.499 337.3 681.699V793.999C337.3 808.199 348.8 819.699 363 819.699H756.1C770.3 819.699 781.8 808.199 781.8 793.999V723.999L755.7 682.699ZM501.6 783.699C501 784.699 499.4 786.899 496 786.899H386.9C383.5 786.899 381.9 784.699 381.3 783.699C380.7 782.699 379.6 780.199 381.3 777.199L435.9 682.699C437.6 679.799 440.4 679.499 441.5 679.499C442.6 679.499 445.4 679.799 447.1 682.699L501.7 777.199C503.3 780.199 502.1 782.799 501.6 783.699ZM639.6 763.599H559.5V745.399H639.6V763.599ZM758 721.099H559.6V702.899H758V721.099Z"/><path fill="url(#y)" d="M501.6 777.3L447 682.8C445.3 679.9 442.5 679.6 441.4 679.6C440.3 679.6 437.5 679.9 435.8 682.8L381.2 777.3C379.5 780.2 380.6 782.8 381.2 783.8C381.8 784.8 383.4 787 386.8 787H496C499.4 787 501 784.8 501.6 783.8C502.1 782.7 503.2 780.2 501.6 777.3ZM448.3 708.7L446.8 753.8H436L434.5 708.7H448.3ZM446.6 772.6C445.3 773.9 443.5 774.5 441.4 774.5C439.3 774.5 437.5 773.8 436.2 772.6C434.9 771.3 434.2 769.7 434.2 767.7C434.2 765.7 434.9 764.1 436.2 762.8C437.5 761.5 439.3 760.9 441.4 760.9C443.5 760.9 445.3 761.5 446.6 762.8C447.9 764.1 448.6 765.7 448.6 767.7C448.6 769.7 448 771.3 446.6 772.6Z"/><path fill="#f14a00" d="M448.3 708.699L446.8 753.799H436L434.5 708.699H448.3zM448.6 767.699C448.6 769.699 447.9 771.299 446.6 772.599 445.3 773.899 443.5 774.499 441.4 774.499 439.3 774.499 437.5 773.799 436.2 772.599 434.9 771.299 434.2 769.699 434.2 767.699 434.2 765.699 434.9 764.099 436.2 762.799 437.5 761.499 439.3 760.899 441.4 760.899 443.5 760.899 445.3 761.499 446.6 762.799 448 763.999 448.6 765.699 448.6 767.699z" class="colorB1B8BC svgShape"/><path fill="url(#z)" d="M758.101 702.899H559.601V721.099H758.101V702.899Z"/><path fill="url(#A)" d="M639.701 745.399H559.601V763.599H639.701V745.399Z"/><path fill="url(#B)" d="M134.2 344.3H500.6C490.1 358.4 481.6 373.7 475.3 389.8H134.2V344.3Z"/><path fill="url(#C)" d="M745.7 356.399V389.799H667C667 388.299 666.9 386.699 666.6 385.199C664.3 372.499 652.6 363.899 640.6 366.099C629.6 368.099 622 378.399 622.6 389.799H541.4C552 372.699 566.5 357.599 584.7 346.099C585.6 345.499 586.6 344.899 587.5 344.399H728.8C734.6 347.899 740.3 351.899 745.7 356.399Z"/><path fill="url(#D)" d="M568.7 636.9H134.2V591.5H510.3C527 610.6 546.9 625.8 568.7 636.9Z"/><path fill="url(#E)" d="M703.1 591.5C701.8 592 700.4 592.4 699.1 592.8C698.4 593 697.7 593.3 697 593.5C696.7 593.6 696.5 593.7 696.2 593.7C695.5 593.9 694.8 594.1 694.1 594.3C693.9 594.3 693.7 594.4 693.5 594.5C692.9 594.7 692.2 594.8 691.6 595C691.5 595 691.4 595.1 691.3 595.1C665.1 601.7 637.8 600.2 612.9 591.6L703.1 591.5Z"/><defs><linearGradient id="a" x1="901.115" x2="691.147" y1="834.236" y2="540.737" gradientUnits="userSpaceOnUse"><stop offset=".14" stop-color="#f14a00" stop-opacity=".5" class="stopColorB1B8BC svgShape"/><stop offset="1" stop-color="#f14a00" class="stopColorB1B8BC svgShape"/></linearGradient><linearGradient id="b" x1="623.36" x2="712.6" y1="325.787" y2="676.597" gradientUnits="userSpaceOnUse"><stop stop-color="#f14a00" stop-opacity=".25" class="stopColorB1B8BC svgShape"/><stop offset="1" stop-color="#f14a00" stop-opacity=".5" class="stopColorB1B8BC svgShape"/></linearGradient><linearGradient id="c" x1="614.965" x2="791.383" y1="390.414" y2="683.811" gradientUnits="userSpaceOnUse"><stop stop-color="#f14a00" stop-opacity="0" class="stopColorB1B8BC svgShape"/><stop offset="1" stop-color="#f14a00" stop-opacity=".5" class="stopColorB1B8BC svgShape"/></linearGradient><linearGradient id="d" x1="585.52" x2="667.67" y1="213.25" y2="637.14" gradientUnits="userSpaceOnUse"><stop offset=".14" stop-color="#f14a00" stop-opacity=".5" class="stopColorB1B8BC svgShape"/><stop offset="1" stop-color="#f14a00" class="stopColorB1B8BC svgShape"/></linearGradient><linearGradient id="e" x1="559.011" x2="559.761" y1="463.24" y2="467.1" gradientUnits="userSpaceOnUse"><stop offset=".14" stop-color="#f14a00" stop-opacity=".5" class="stopColorB1B8BC svgShape"/><stop offset="1" stop-color="#f14a00" class="stopColorB1B8BC svgShape"/></linearGradient><linearGradient id="f" x1="645.09" x2="645.09" y1="392.969" y2="392.979" gradientUnits="userSpaceOnUse"><stop offset=".14" stop-color="#f14a00" stop-opacity=".5" class="stopColorB1B8BC svgShape"/><stop offset="1" stop-color="#f14a00" class="stopColorB1B8BC svgShape"/></linearGradient><linearGradient id="g" x1="735.616" x2="735.976" y1="454.661" y2="456.491" gradientUnits="userSpaceOnUse"><stop offset=".14" stop-color="#f14a00" stop-opacity=".5" class="stopColorB1B8BC svgShape"/><stop offset="1" stop-color="#f14a00" class="stopColorB1B8BC svgShape"/></linearGradient><linearGradient id="h" x1="367.65" x2="472.989" y1="-5.5" y2="350.01" gradientUnits="userSpaceOnUse"><stop stop-color="#f14a00" stop-opacity=".25" class="stopColorB1B8BC svgShape"/><stop offset="1" stop-color="#f14a00" stop-opacity=".5" class="stopColorB1B8BC svgShape"/></linearGradient><linearGradient id="i" x1="552.669" x2="565.819" y1="96.289" y2="375.929" gradientUnits="userSpaceOnUse"><stop offset=".14" stop-color="#f14a00" stop-opacity=".5" class="stopColorB1B8BC svgShape"/><stop offset="1" stop-color="#f14a00" class="stopColorB1B8BC svgShape"/></linearGradient><linearGradient id="j" x1="430.894" x2="434.564" y1="-63.38" y2="58.55" gradientUnits="userSpaceOnUse"><stop stop-color="#f14a00" stop-opacity=".25" class="stopColorB1B8BC svgShape"/><stop offset="1" stop-color="#f14a00" stop-opacity=".5" class="stopColorB1B8BC svgShape"/></linearGradient><linearGradient id="k" x1="599.58" x2="764.86" y1="217.71" y2="217.71" gradientUnits="userSpaceOnUse"><stop stop-color="#f14a00" stop-opacity=".25" class="stopColorB1B8BC svgShape"/><stop offset="1" stop-color="#f14a00" stop-opacity=".5" class="stopColorB1B8BC svgShape"/></linearGradient><linearGradient id="l" x1="599.59" x2="764.86" y1="260.185" y2="260.185" gradientUnits="userSpaceOnUse"><stop stop-color="#f14a00" stop-opacity=".25" class="stopColorB1B8BC svgShape"/><stop offset="1" stop-color="#f14a00" stop-opacity=".5" class="stopColorB1B8BC svgShape"/></linearGradient><linearGradient id="m" x1="359.016" x2="460.166" y1="246.924" y2="588.304" gradientUnits="userSpaceOnUse"><stop stop-color="#f14a00" stop-opacity=".25" class="stopColorB1B8BC svgShape"/><stop offset="1" stop-color="#f14a00" stop-opacity=".5" class="stopColorB1B8BC svgShape"/></linearGradient><linearGradient id="n" x1="534.509" x2="566.299" y1="286.087" y2="545.227" gradientUnits="userSpaceOnUse"><stop offset=".14" stop-color="#f14a00" stop-opacity=".5" class="stopColorB1B8BC svgShape"/><stop offset="1" stop-color="#f14a00" class="stopColorB1B8BC svgShape"/></linearGradient><linearGradient id="o" x1="418.43" x2="422.08" y1="185.42" y2="306.73" gradientUnits="userSpaceOnUse"><stop stop-color="#f14a00" stop-opacity=".25" class="stopColorB1B8BC svgShape"/><stop offset="1" stop-color="#f14a00" stop-opacity=".5" class="stopColorB1B8BC svgShape"/></linearGradient><linearGradient id="p" x1="561.47" x2="569.28" y1="459.725" y2="459.725" gradientUnits="userSpaceOnUse"><stop stop-color="#f14a00" stop-opacity=".25" class="stopColorB1B8BC svgShape"/><stop offset="1" stop-color="#f14a00" stop-opacity=".5" class="stopColorB1B8BC svgShape"/></linearGradient><linearGradient id="q" x1="566.89" x2="597.06" y1="464.86" y2="464.86" gradientUnits="userSpaceOnUse"><stop stop-color="#f14a00" stop-opacity=".25" class="stopColorB1B8BC svgShape"/><stop offset="1" stop-color="#f14a00" stop-opacity=".5" class="stopColorB1B8BC svgShape"/></linearGradient><linearGradient id="r" x1="723.29" x2="731.74" y1="456.415" y2="456.415" gradientUnits="userSpaceOnUse"><stop stop-color="#f14a00" stop-opacity=".25" class="stopColorB1B8BC svgShape"/><stop offset="1" stop-color="#f14a00" stop-opacity=".5" class="stopColorB1B8BC svgShape"/></linearGradient><linearGradient id="s" x1="728.05" x2="752.16" y1="468.19" y2="468.19" gradientUnits="userSpaceOnUse"><stop stop-color="#f14a00" stop-opacity=".25" class="stopColorB1B8BC svgShape"/><stop offset="1" stop-color="#f14a00" stop-opacity=".5" class="stopColorB1B8BC svgShape"/></linearGradient><linearGradient id="t" x1="743.86" x2="758.67" y1="463.185" y2="463.185" gradientUnits="userSpaceOnUse"><stop stop-color="#f14a00" stop-opacity=".25" class="stopColorB1B8BC svgShape"/><stop offset="1" stop-color="#f14a00" stop-opacity=".5" class="stopColorB1B8BC svgShape"/></linearGradient><linearGradient id="u" x1="583.5" x2="682.31" y1="507.345" y2="507.345" gradientUnits="userSpaceOnUse"><stop stop-color="#f14a00" stop-opacity=".25" class="stopColorB1B8BC svgShape"/><stop offset="1" stop-color="#f14a00" stop-opacity=".5" class="stopColorB1B8BC svgShape"/></linearGradient><linearGradient id="v" x1="609.5" x2="632.11" y1="514.325" y2="514.325" gradientUnits="userSpaceOnUse"><stop stop-color="#f14a00" stop-opacity=".25" class="stopColorB1B8BC svgShape"/><stop offset="1" stop-color="#f14a00" stop-opacity=".5" class="stopColorB1B8BC svgShape"/></linearGradient><linearGradient id="w" x1="353.064" x2="460.634" y1="491.678" y2="854.718" gradientUnits="userSpaceOnUse"><stop stop-color="#f14a00" stop-opacity=".25" class="stopColorB1B8BC svgShape"/><stop offset="1" stop-color="#f14a00" stop-opacity=".5" class="stopColorB1B8BC svgShape"/></linearGradient><linearGradient id="x" x1="551.585" x2="565.035" y1="589.349" y2="875.379" gradientUnits="userSpaceOnUse"><stop offset=".14" stop-color="#f14a00" stop-opacity=".5" class="stopColorB1B8BC svgShape"/><stop offset="1" stop-color="#f14a00" class="stopColorB1B8BC svgShape"/></linearGradient><linearGradient id="y" x1="430.895" x2="434.564" y1="430.92" y2="552.85" gradientUnits="userSpaceOnUse"><stop stop-color="#f14a00" stop-opacity=".25" class="stopColorB1B8BC svgShape"/><stop offset="1" stop-color="#f14a00" stop-opacity=".5" class="stopColorB1B8BC svgShape"/></linearGradient><linearGradient id="z" x1="599.581" x2="764.861" y1="712.009" y2="712.009" gradientUnits="userSpaceOnUse"><stop stop-color="#f14a00" stop-opacity=".25" class="stopColorB1B8BC svgShape"/><stop offset="1" stop-color="#f14a00" stop-opacity=".5" class="stopColorB1B8BC svgShape"/></linearGradient><linearGradient id="A" x1="599.581" x2="764.861" y1="754.494" y2="754.494" gradientUnits="userSpaceOnUse"><stop stop-color="#f14a00" stop-opacity=".25" class="stopColorB1B8BC svgShape"/><stop offset="1" stop-color="#f14a00" stop-opacity=".5" class="stopColorB1B8BC svgShape"/></linearGradient><linearGradient id="B" x1="314.991" x2="319.531" y1="316.35" y2="412.88" gradientUnits="userSpaceOnUse"><stop offset=".14" stop-color="#f14a00" stop-opacity=".5" class="stopColorB1B8BC svgShape"/><stop offset="1" stop-color="#f14a00" class="stopColorB1B8BC svgShape"/></linearGradient><linearGradient id="C" x1="641.213" x2="645.123" y1="325.04" y2="408.08" gradientUnits="userSpaceOnUse"><stop offset=".14" stop-color="#f14a00" stop-opacity=".5" class="stopColorB1B8BC svgShape"/><stop offset="1" stop-color="#f14a00" class="stopColorB1B8BC svgShape"/></linearGradient><linearGradient id="D" x1="347.857" x2="352.717" y1="560.57" y2="663.98" gradientUnits="userSpaceOnUse"><stop offset=".14" stop-color="#f14a00" stop-opacity=".5" class="stopColorB1B8BC svgShape"/><stop offset="1" stop-color="#f14a00" class="stopColorB1B8BC svgShape"/></linearGradient><linearGradient id="E" x1="657.773" x2="658.503" y1="586.239" y2="601.769" gradientUnits="userSpaceOnUse"><stop offset=".14" stop-color="#f14a00" stop-opacity=".5" class="stopColorB1B8BC svgShape"/><stop offset="1" stop-color="#f14a00" class="stopColorB1B8BC svgShape"/></linearGradient></defs></svg>