<svg xmlns="http://www.w3.org/2000/svg" enable-background="new 0 0 2000 2000" viewBox="0 0 2000 2000" class="d-none"><rect width="2000" height="2000" fill="#f14a00" fill-rule="evenodd" clip-rule="evenodd" display="none" class="colorfff svgShape"/><path fill="#ffe2d5" d="M307.58,1359.79c19.22,29.67,207.5,255.11,359.27,257.85c136.87,2.47,181.26-195.94,325.02-181.25  c107.05,10.94,120.67,124.87,244.7,164.42c121.91,38.87,283.1-8.02,364.25-95.77c422.15-456.43,199.57-1136.24-156.86-1327.9  C1283.01,90.6,1185.1,329.93,847.07,287.13C643.8,261.4,681.66,139.61,506.53,220.41C303.32,314.16-25.45,845.69,307.58,1359.79z" display="none" opacity=".5" class="colord5f0ff svgShape"/><linearGradient id="a" x1="1000" x2="1000" y1="82.894" y2="1771.537" gradientUnits="userSpaceOnUse"><stop offset="0" stop-color="#ffe2d5" class="stopColord5f0ff svgShape"/><stop offset=".535" stop-color="#ffe3d7" class="stopColord7f1ff svgShape"/><stop offset=".728" stop-color="#ffe8de" class="stopColordef3ff svgShape"/><stop offset=".865" stop-color="#fff0e9" class="stopColore9f7ff svgShape"/><stop offset=".976" stop-color="#fffcfa" class="stopColorfafdff svgShape"/><stop offset="1" stop-color="#ffffff" class="stopColorfff svgShape"/><stop offset="1" stop-color="#fff6f2" class="stopColorf2faff svgShape"/></linearGradient><path fill="url(#a)" d="M452.1,1771.54H1547.9c228.4-170.29,376.59-444.32,376.59-753.37c0-516.53-413.91-935.27-924.49-935.27    S75.51,501.63,75.51,1018.16C75.51,1327.22,223.69,1601.25,452.1,1771.54z" opacity=".83"/><path fill="#ec8c62" d="M1607.86,1756.75c-52.33-59.38,5.52-296.51,110.86-283.82c6.86,0.83,45.22,5.45,78.36,41.41      c35.71,38.75,43.03,89.68,43.87,95.53C1858.83,1734.2,1660.58,1816.58,1607.86,1756.75z" class="color62cbec svgShape"/><path fill="#f9cebb" d="M1611.44,1769.68c-52.33-59.38,5.52-296.51,110.85-283.82c6.86,0.83,45.22,5.45,78.36,41.41      c35.71,38.75,43.03,89.68,43.87,95.53C1862.41,1747.13,1664.17,1829.51,1611.44,1769.68z" class="colorbbe6f9 svgShape"/><path fill="#f14a00" d="M1552.54,1807.08c-0.03-0.04-0.05-0.08-0.08-0.12c-1.08-1.76-1-3.73,0.19-4.4        c55.1-31.04,102.88-73.12,141.99-125.08c31.27-41.55,56.99-89.46,76.43-142.42c0.52-1.43,2.18-1.59,3.7-0.37        c1.52,1.23,2.32,3.38,1.8,4.81c-19.58,53.34-45.48,101.61-76.98,143.45c-39.4,52.34-87.51,94.73-143.02,125.99        C1555.41,1809.59,1553.63,1808.76,1552.54,1807.08z" class="colorfff svgShape"/><path fill="#f14a00" d="M1737.28 1618.4c-.42-.65-.72-1.4-.81-2.14-.22-1.83.9-2.95 2.49-2.5 14.68 4.14 28.63 4.98 41.47 2.48 12.44-2.42 23.3-7.87 32.29-16.2 1.01-.93 2.84-.36 4.09 1.27 1.25 1.63 1.45 3.72.45 4.65-9.44 8.75-20.86 14.48-33.93 17.02-13.49 2.62-28.15 1.75-43.58-2.61C1738.81 1620.11 1737.9 1619.35 1737.28 1618.4zM1678.47 1708.74c-.6-.93-.93-2.02-.81-2.98.2-1.65 1.66-2.25 3.26-1.34 14.69 8.38 29.4 13.66 43.7 15.71 13.86 1.98 26.77.83 38.35-3.42 1.3-.48 3.12.61 4.07 2.44.95 1.82.67 3.68-.63 4.16-12.17 4.47-25.73 5.68-40.3 3.59-15.04-2.15-30.49-7.7-45.93-16.51C1679.5 1710.01 1678.91 1709.42 1678.47 1708.74zM1702.81 1642.78c-8.52-13.11-15.62-26.92-21.19-41.19-6.86-17.57-11.09-35.1-12.57-52.09-.16-1.81 1.01-2.86 2.61-2.35 1.6.52 3.02 2.4 3.18 4.21 1.41 16.17 5.44 32.85 11.96 49.57 6.73 17.25 15.83 33.8 27.04 49.18 1.21 1.67 1.35 3.73.3 4.6-1.05.87-2.89.23-4.1-1.44C1707.52 1649.83 1705.11 1646.33 1702.81 1642.78zM1635.99 1746.83c-.11-.17-.21-.35-.31-.53-8.96-17.73-15.28-35.85-18.79-53.87-3.4-17.46-4.02-34.08-1.82-49.4.23-1.63 1.71-2.19 3.3-1.26 1.59.94 2.69 3.02 2.46 4.65-2.09 14.58-1.51 30.39 1.73 47 3.34 17.14 9.36 34.39 17.88 51.26.92 1.83.61 3.67-.7 4.11C1638.56 1749.21 1636.97 1748.34 1635.99 1746.83z" class="colorfff svgShape"/><g fill="#000000" class="color000 svgShape"><path fill="#efaa8b" d="M1551.76,1748.89c-65.94,2.72-189.16-159.26-125.64-220.83c4.14-4.01,27.27-26.43,67.97-29.01      c43.85-2.78,80.68,19.22,84.91,21.74C1668.92,1574.49,1618.2,1746.15,1551.76,1748.89z" class="color8bdcef svgShape"/><path fill="#f7ddd2" d="M1562.01,1753.35c-65.94,2.72-189.16-159.26-125.64-220.83c4.14-4.01,27.27-26.43,67.97-29.01      c43.85-2.78,80.68,19.22,84.91,21.74C1679.18,1578.95,1628.45,1750.61,1562.01,1753.35z" class="colord2edf7 svgShape"/><path fill="#f14a00" d="M1555.31,1811.15c-0.04,0-0.08-0.01-0.12-0.01c-1.71-0.22-2.94-1.31-2.75-2.43        c8.83-51.99,6.65-105.03-6.47-157.65c-10.49-42.07-28.03-83.89-52.12-124.29c-0.65-1.09,0.11-2.25,1.7-2.59        c1.59-0.34,3.41,0.27,4.06,1.36c24.27,40.69,41.93,82.81,52.5,125.19c13.22,53,15.41,106.42,6.51,158.79        C1558.45,1810.6,1556.97,1811.32,1555.31,1811.15z" class="colorfff svgShape"/><path fill="#f14a00" d="M1530.09 1592.41c-.65-.07-1.28-.27-1.81-.6-1.3-.82-1.44-2.13-.31-2.92 10.39-7.33 18.26-15.93 23.38-25.56 4.96-9.33 7.14-19.22 6.46-29.42-.08-1.14 1.25-2.03 2.97-1.98 1.71.05 3.17 1.01 3.25 2.15.71 10.71-1.57 21.11-6.79 30.92-5.38 10.12-13.65 19.15-24.57 26.86C1532.01 1592.32 1531.04 1592.51 1530.09 1592.41zM1557.74 1677.94c-.92-.1-1.8-.46-2.35-1.04-.96-1-.58-2.26.84-2.81 13.14-5.12 24.28-11.87 33.12-20.06 8.56-7.94 14.59-16.9 17.92-26.64.37-1.09 2.03-1.7 3.71-1.35 1.68.34 2.74 1.5 2.36 2.59-3.5 10.23-9.84 19.65-18.83 27.99-9.29 8.61-21 15.7-34.81 21.08C1559.1 1677.94 1558.41 1678.01 1557.74 1677.94zM1527.79 1627.54c-12.96-1.37-25.64-4.02-37.8-7.9-14.98-4.78-28.55-11.25-40.34-19.21-1.26-.85-1.32-2.16-.15-2.92 1.17-.77 3.14-.7 4.4.15 11.22 7.58 24.13 13.72 38.39 18.28 14.71 4.7 30.2 7.49 46.05 8.31 1.72.09 3.12 1.08 3.14 2.22.01 1.14-1.37 1.99-3.09 1.9C1534.83 1628.19 1531.3 1627.91 1527.79 1627.54zM1560.1 1725.45c-.17-.02-.34-.04-.5-.08-16.19-3.5-31.25-8.92-44.76-16.11-13.1-6.96-24.18-15.29-32.95-24.76-.93-1.01-.52-2.26.92-2.8 1.44-.54 3.37-.16 4.3.85 8.34 9.01 18.89 16.93 31.36 23.56 12.86 6.84 27.19 11.99 42.59 15.33 1.67.36 2.7 1.53 2.3 2.62C1562.99 1725.04 1561.59 1725.61 1560.1 1725.45z" class="colorfff svgShape"/></g><ellipse cx="1000" cy="1862.26" fill="#ffe9df" rx="800" ry="54.85" class="colordfe6ff svgShape"/><g fill="#000000" class="color000 svgShape"><path fill="#f14a00" d="M1315.76,573.13c19.91,4.05,79.91,12.4,182.56-26.11c72.84-27.32,133.93-65.77,165.07-86.77      c-7.97,17.2-27.67,65.1-5.85,98.93c18.1,28.06,55.42,31.97,73.09,32.55c-42.47,28.99-146.46,96.34-270.65,139.04      c-123.93,42.61-198.88,36.92-228.2,32.63c17.33-18.77,41.45-49.36,59.72-92.45C1307.94,632.19,1313.68,597.34,1315.76,573.13z" class="colorfff svgShape"/><path fill="#ffe9df" d="M1275.06,771.37c-17.26,0-31.88-1.23-44.01-3l-9.39-1.37l6.43-6.97c24.78-26.84,44.56-57.46,58.79-91.01      c13-30.66,21.04-63.06,23.89-96.31l0.48-5.59l5.5,1.12c26.81,5.46,85.83,9.36,179.81-25.89      c67.31-25.25,126.35-60.83,164.03-86.23l14.87-10.02l-7.54,16.27c-10.44,22.54-25.13,64.75-6.18,94.12      c15.25,23.63,45.96,29.5,69.05,30.26l15.29,0.5l-12.63,8.62c-62.19,42.44-159.83,101.13-271.84,139.64      C1380.85,763.28,1319.32,771.37,1275.06,771.37z M1241.86,759.66c43.28,4.69,113.91,1.67,216.49-33.6      c104.08-35.79,195.72-89.21,257.59-130.44c-22.74-2.83-48.19-11.38-62.6-33.72c-17.61-27.3-10.3-62.98-0.87-88.44      c-38.01,24.63-91.87,55.54-152.39,78.24c-90.45,33.93-149.87,32.35-179.85,27.34c-3.32,32.38-11.43,63.94-24.13,93.88      C1282.67,704.59,1264.45,733.73,1241.86,759.66z" class="colordfe6ff svgShape"/><path fill="#f14a00" d="M567.5,887.57c-9.66-17.87-41.77-69.25-137.16-123.27c-67.7-38.34-136.38-60.52-172.46-70.94      c18.31-4.93,67.69-20.55,79.63-59c9.91-31.89-11.04-63.02-21.93-76.94c49.48,13.97,167.87,50.52,280.31,118.37      c112.2,67.71,155.93,128.85,171.46,154.09c-25.52-1.25-64.46-0.12-109.23,13.52C617.82,855.67,587.4,873.63,567.5,887.57z" class="colorfff svgShape"/><path fill="#ffe9df" d="M565.77,894.88l-2.67-4.94c-13.02-24.07-47.89-71.84-135.23-121.3c-62.55-35.42-127.73-57.88-171.39-70.48      l-17.23-4.97l17.31-4.66c23.99-6.46,65.79-22.28,76.16-55.65c8.34-26.86-6.87-54.18-21.09-72.38l-9.42-12.05l14.72,4.16      c72.46,20.46,180.12,57.7,281.53,118.91C700.08,732.84,748.7,790.06,771.6,827.26l4.97,8.08l-9.47-0.46      c-36.49-1.79-72.67,2.69-107.53,13.31c-31.85,9.7-61.87,24.33-89.2,43.48L565.77,894.88z M275.01,693.26      c43.28,13.35,101.55,34.83,157.79,66.69c84.06,47.61,120.98,94.19,136.37,120.41c26.97-18.23,56.38-32.26,87.49-41.73      c32.9-10.02,66.93-14.74,101.33-14.06c-24.17-36.21-71.81-88.44-164.68-144.49c-94.23-56.87-194.01-92.88-265.33-113.88      c12.42,19.25,22.19,44.27,14.31,69.65C332.64,666.87,300.58,684.16,275.01,693.26z" class="colordfe6ff svgShape"/><g fill="#000000" class="color000 svgShape"><path fill="#f14a00" d="M898.94,584.65c6-17.91,13.88-50.77,4.42-88.5c-22.99-91.69-125.64-121.29-130.98-122.74      c12.5,2.64,46.92,8.35,65.84-11.09c15.69-16.12,12.63-41.21,10.35-52.9c14.94,4.24,134.7,40.4,178.97,157.77      c23.37,61.96,14.86,117.8,9.01,143.89c-14.94-8.55-38.66-19.77-69.71-25.27C938.9,580.88,915.15,582.36,898.94,584.65z" class="colorfff svgShape"/><path fill="#ffe9df" d="M1039.96,618.79l-5.88-3.37c-21.2-12.13-44.11-20.43-68.1-24.68c-21.92-3.88-44.24-4.27-66.33-1.15      l-8.01,1.13l2.57-7.67c6.73-20.09,12.94-51.27,4.31-85.69c-9.27-36.97-32.82-68-69.99-92.24      c-29.35-19.14-56.31-26.58-57.45-26.89l2.34-9.72c16.05,3.39,45.35,6.63,61.23-9.68c12.72-13.07,11.93-33.56,9.02-48.45      l-1.56-7.99l7.83,2.23c22.75,6.46,138.44,44.58,182.28,160.81c21.83,57.87,17.05,111.75,9.21,146.75L1039.96,618.79z       M929.24,577.52c12.88,0,25.75,1.13,38.48,3.38c22.89,4.05,44.84,11.63,65.34,22.55c6.64-33.64,9.45-82.41-10.19-134.48      c-38.52-102.13-135.03-141.61-168.11-152.41c1.93,16.1,0.45,35.5-12.95,49.26c-9.71,9.98-22.99,14.03-36.08,15.11      c34.55,16.35,86.62,50.75,102.48,114.01c8.2,32.71,3.89,62.57-2.2,83.8C913.74,577.92,921.49,577.52,929.24,577.52z" class="colordfe6ff svgShape"/></g></g><g fill="#000000" class="color000 svgShape"><path fill="#f7d8cb" d="M1287.22 884.53c-2.22-1.64-5.35-1.17-6.99 1.06l-80.15 108.7c-1.64 2.22-1.17 5.35 1.06 6.99.79.58 1.69.9 2.6.96 1.66.12 3.34-.58 4.4-2.02l80.15-108.7C1289.91 889.3 1289.44 886.17 1287.22 884.53zM686.04 861.68c-1.62-2.24-4.75-2.73-6.98-1.11-2.23 1.62-2.73 4.75-1.11 6.98l144.65 199.14c.9 1.24 2.26 1.94 3.68 2.05 1.14.08 2.31-.22 3.3-.94 2.23-1.62 2.73-4.75 1.11-6.98L686.04 861.68zM990.27 906.29c-2.76.02-4.99 2.27-4.97 5.03l1.5 264.82c.01 2.63 2.05 4.77 4.63 4.96.13.01.27.01.4.01 2.76-.02 4.99-2.27 4.97-5.03l-1.5-264.82C995.28 908.5 993.03 906.26 990.27 906.29zM990.08 871.92c2.76-.02 4.99-2.27 4.97-5.03l-.86-151.18c-.02-2.76-2.27-4.99-5.03-4.97-2.76.02-4.99 2.27-4.97 5.03l.86 151.18c.02 2.63 2.05 4.77 4.63 4.96C989.81 871.92 989.94 871.92 990.08 871.92z" class="colorcbd7f7 svgShape"/></g><g fill="#000000" class="color000 svgShape"><rect width="1166.82" height="842.02" x="407.12" y="1010.49" fill="#f27d49" transform="rotate(-180 990.53 1431.5)" class="color4996f2 svgShape"/><rect width="482.5" height="842.02" x="407.12" y="1010.49" fill="#fea984" transform="rotate(-180 648.371 1431.5)" class="color84b2fe svgShape"/><path fill="#fea984" d="M1000.79,1303.78c242.04,0,484.08,0,726.12,0c-50.99-97.76-101.98-195.53-152.97-293.29H894.35     C929.83,1108.25,965.31,1206.02,1000.79,1303.78z" class="color84b2fe svgShape"/><path fill="#f27d49" d="M273.09,1294.32c163.99,1.05,327.98,2.1,491.97,3.15c41.52-95.66,83.05-191.32,124.57-286.98h-482.5     C362.44,1105.1,317.77,1199.71,273.09,1294.32z" class="color4996f2 svgShape"/><path fill="#e24f0e" d="M1215.02,1761.51c3.25-12.51,6.49-25.02,9.74-37.53c4.7,12.01,9.41,24.02,14.11,36.03     c3.25-12.01,6.5-24.02,9.74-36.03c3.25,11.01,6.49,22.02,9.74,33.03c3.7-11.51,7.39-23.02,11.09-34.53     c3.25,12.01,6.49,24.02,9.74,36.03c3.58-11.51,7.17-23.02,10.75-34.53c2.13,10.01,4.25,20.02,6.38,30.03     c2.8-10.17,5.6-20.35,8.4-30.53c1.97,6.95,3.95,13.89,5.92,20.84v108.19h-102.6v-116.83     C1210.36,1744.29,1212.69,1752.9,1215.02,1761.51z" class="color0e64e2 svgShape"/><path fill="#f14a00" d="M1168.44 1507.8h-15.31v-61.03-36.04-1.47h-59.56l0 0 0 0h0v0l-63.7 98.54 0 0h0v37.51h85.75v48.61h37.51v-48.61h15.31V1507.8zM1074.54 1507.8l39.45-61.03h1.63v61.03H1074.54zM1450.64 1507.8h-15.31v-61.03-36.04-1.47h-59.56l0 0 0 0h0v0l-63.7 98.54 0 0h0v37.51h85.75v48.61h37.51v-48.61h15.31V1507.8zM1356.74 1507.8l39.45-61.03h1.63v61.03H1356.74zM1240.26 1409.26L1240.26 1409.26c-37.4 0-67.72 30.32-67.72 67.72v24.62 0 24.62c0 37.4 30.32 67.72 67.72 67.72l0 0c37.4 0 67.72-30.32 67.72-67.72v-24.62 0-24.62C1307.97 1439.58 1277.65 1409.26 1240.26 1409.26zM1269.49 1501.6L1269.49 1501.6v10.63c0 16.15-13.09 29.23-29.23 29.23l0 0c-16.15 0-29.23-13.09-29.23-29.23v-10.63 0-10.63c0-16.15 13.09-29.23 29.23-29.23l0 0c16.15 0 29.23 13.09 29.23 29.23V1501.6z" class="colorfff svgShape"/></g><g fill="#000000" class="color000 svgShape"><path fill="#632d15" d="M302.12 1810.03c-14.18-20.01-7.6-40.2-18.84-44.61-5.14-2.02-11.36.29-14.93 2.95-21.95 16.3-6.78 92.42 18.97 98.1 15.73 3.47 38.48-18.7 36.34-33.63C322.31 1823.48 312.25 1824.33 302.12 1810.03zM533.02 1593.4c10.87.08 21.73.16 32.6.24 4.25.03 7.35-4 6.23-8.1-6.21-22.78-12.42-45.56-18.64-68.34-.73-2.69-3.13-4.6-5.92-4.72-10.33-.43-20.67-.86-31-1.29-4.27-.18-7.51 3.79-6.49 7.93 5.68 23.13 11.36 46.26 17.04 69.39C527.54 1591.36 530.09 1593.37 533.02 1593.4z" class="color153663 svgShape"/><path fill="#f14a00" d="M539.13,1524.14c0,2.48,2.01,4.5,4.5,4.5c2.48,0,4.5-2.01,4.5-4.5c0-2.48-2.01-4.5-4.5-4.5      C541.14,1519.64,539.13,1521.66,539.13,1524.14z" class="colorfff svgShape"/><path fill="#632d15" d="M350.87,1826.79c-19.93-8.39-24.39-26.57-34.86-24.65c-4.79,0.88-8.37,5.5-9.82,9.15     c-8.86,22.42,37.91,72.38,59.83,64.65c13.4-4.72,20.13-31.9,11.58-42.09C372.24,1827.47,365.11,1832.79,350.87,1826.79z" class="color153663 svgShape"/><path fill="#a33606" d="M564.87,1674.17c-5.75-3.19-21.81-12.45-38.85-7.92c-6.19,1.65-10.62,4.57-13.39,6.64     c-24.87,18.52-150.79,142.36-159.01,150.46c0.89,3.58,3.34,11.36,10.27,18.47c7.72,7.93,16.52,10.41,20.09,11.21     c49.91-38.87,99.82-77.74,149.73-116.61c45.8,34.07,91.59,68.14,137.39,102.22c16.85-30.04,33.71-60.08,50.56-90.13     C642.39,1711.98,586.77,1686.3,564.87,1674.17z" class="color0643a3 svgShape"/><path fill="#a33606" d="M739.04,1865.24c-56.1-5.11-115.45-8.8-177.78-10.47c-87.83-2.34-170.25-0.37-246.46,4.38     c-2.45-3.94-6.82-12.11-7.72-23.41c-0.88-11.05,1.98-19.65,3.73-23.93c56.38,1.86,106.18-0.51,147.62-4.32     c50.87-4.68,85.12-7.83,131.13-19.51c55-13.97,68.33-25.29,114.11-29.36c38.94-3.46,84.02-7.47,100.6,19     c12.86,20.54,7.37,57.5-17.23,76.39C767.39,1869.09,744.17,1866.04,739.04,1865.24z" class="color0643a3 svgShape"/><path fill="#f9b191" d="M568.92,1625.46c-4.35-0.51-4.33-5.07-12.22-11.91c-4.08-3.53-7.76-5.69-10.15-7.07     c-9.12-5.25-11.21-3.68-15.25-7.14c-7.96-6.81-7.25-19.27-7.13-21.02c0.17-2.35,0.91-11,7.71-17.68     c8.57-8.42,23.99-10.98,31.54-4.82c10.74,8.77-3.41,27.89,9.9,47.07c3.57,5.14,8.37,9.26,7.21,14.42     C579.47,1621.98,573.75,1626.02,568.92,1625.46z" class="colorf9b691 svgShape"/><path fill="#f14a00" d="M731.72,1562.93c-18.37,12.14-24.21,30.38-27.32,40.11c-5.92,18.49-4.24,34.44-2.06,55.15     c0.52,4.92,1.09,8.81,1.66,12.11c2.46,14.03,4.06,24.13,4.35,25.68c1.73,9.36,0.26,27.06-13.78,63.59     c5.83,6.82,23.9,26.2,54.72,33.35c27.38,6.36,49.63-0.46,58.34-3.65c19.84-58.62,25.66-106.29,27.35-137.77     c1.42-26.36,0.35-48.28-13.35-67.95c-3.78-5.43-17.28-24.81-42.94-29.8C775,1553.04,752.68,1549.07,731.72,1562.93z" class="colorfff svgShape"/><path fill="#f14a00" d="M739.98,1409.47c0.62,0.45,2.78,2.07,4.93,4.79c2.32,2.91,4.64,7.09,5.12,12.48     c0.44,4.93-0.82,8.97-1.96,11.55c-0.38,0.85-0.74,1.54-1.03,2.04c-85.27,19.35-109.53,35.58-109.39,48.42     c0.33,29.39,128.62,42.61,129.64,85.06c0.3,12.48-10.56,21.15-11.7,22.04c-41.38,32.04-189.16-43.13-183.36-103.09     C576.02,1453.68,645.67,1414.91,739.98,1409.47z" class="colorfff svgShape"/><path fill="#f7b192" d="M739.3,1409.82c2.66,2.6,5.48,6.47,6.62,11.76c1.04,4.83,0.29,9.01-0.52,11.71     c0.16,0.03,0.32,0.06,0.48,0.09c17.04,3.46,26.09,21.19,30.31,18.4c1.93-1.28,1.22-5.8,0.68-7.79     c-2.15-7.97-10.99-9.49-10.51-12.72c0.47-3.16,9.58-6.54,18.09-4.66c10.42,2.31,15.18,11.49,21.75,9.22     c0.39-0.13,2.03-0.74,3.28-2.27c5.34-6.58-0.91-25.15-13.59-33.1c-11.77-7.38-26.12-3.19-32.18-1.45     c-11.63,3.33-11.17,7.52-22.42,10.35C740.59,1409.54,739.94,1409.69,739.3,1409.82z" class="colorf7b692 svgShape"/><path fill="#f14a00" d="M755.68,1525.72c-7.06,11.14-9.05,22.11-9.66,28.82c-1.59,8.28,3,16.48,10.6,19.33      c8.12,3.05,17.61-0.79,21.44-8.98c4.62-8.92,9.35-19.39,13.57-31.35c4.9-13.88,8.01-26.7,10.03-37.79      C796.39,1496.73,770.66,1502.07,755.68,1525.72z" class="colorf9b28a svgShape"/><path fill="#fcd1be" d="M759.58,1463.77c-7.59,2.87-11.78,8.41-16.3,14.41c-3.87,5.14-25.43,33.73-12.28,54.72      c9.11,14.54,30.53,18.49,46.26,13.98c23.5-6.74,42.44-34.71,33.3-58.36C802.82,1468.47,777.05,1457.18,759.58,1463.77z" class="colorfcd3be svgShape"/><path fill="#521b03" d="M801.45,1497.85c-8.35-26.72-56.37-21.49-62.22-44.76c-3.16-12.59,7.2-28.3,20.25-35.27      c12.16-6.5,27.04-5.61,38.02,1.29c13.35,8.39,16.61,22.96,17.37,26.36c1.86,8.33-0.61,9.48,1.12,18.65      c2.8,14.89,10.43,17.84,12.2,27.03c3.97,20.58-26.53,45.78-32.06,42.37C792.22,1531.11,806.85,1515.1,801.45,1497.85z" class="color060352 svgShape"/><g fill="#000000" class="color000 svgShape"><path fill="#f14a00" d="M891.87 1402.24c7.39 2.21 13.99 8.88 12.94 12.64-1.33 4.73-14.03 2.12-33.33 7.02-20.85 5.29-29.9 14.4-31.03 12.84C838.3 1431.78 868.84 1395.34 891.87 1402.24zM868.26 1443.2c1.98 2.11 2.87 5.51 1.82 6.53-1.32 1.28-4.95-1.95-12.13-3.99-7.76-2.2-12.41-.95-12.48-1.67C845.33 1442.7 862.09 1436.63 868.26 1443.2zM845.29 1393.46c4.3-1.66 9.84-.92 10.72 1.23 1.1 2.72-5.84 6.13-13.15 15.48-7.9 10.11-8.84 17.71-9.94 17.39C830.82 1426.96 831.91 1398.62 845.29 1393.46z" class="colorfff svgShape"/></g><path fill="#f14a00" d="M819.18,1583.75c-4.27-8.71-14.42-18.06-26.09-18.27c-16.74-0.31-26.71,18.34-37.55,39.39     c-11.15,21.62-23.21,45.78-44.49,54.51c-8.85,3.64-20.39,5.05-35.76,1.03c-23.75-6.19-56.63-25.37-102.81-69.39     c-2.36,0.4-7.92,1.69-12.75,6.38c-7.73,7.47-7.38,17.5-7.29,19.14c43.07,72.8,115.35,109.11,172.97,94.12     c1.31-0.34,2.62-0.71,3.92-1.1c44.25-13.47,82.47-59.2,91.27-95.31C823.43,1602.61,823.21,1591.98,819.18,1583.75z" class="colorfff svgShape"/><path fill="#fea984" d="M820.6,1614.23c-0.76,23.38-17.41,59.78-48.76,80.11c-14.59,9.46-30.89,14.5-46.44,16.3     c1.31-0.34,2.62-0.71,3.92-1.1C773.57,1696.07,811.8,1650.34,820.6,1614.23z" class="color84b2fe svgShape"/></g></svg>