<svg width="24" height="24" viewBox="0 0 24 24" fill="none" xmlns="http://www.w3.org/2000/svg">
<path d="M12.75 1.5C6.537 1.5 1.5 6.537 1.5 12.75C1.5 18.963 6.537 24 12.75 24C18.963 24 24 18.963 24 12.75C24 6.537 18.963 1.5 12.75 1.5ZM12.75 22.5C7.374 22.5 3 18.126 3 12.75C3 7.374 7.374 3 12.75 3C18.126 3 22.5 7.374 22.5 12.75C22.5 18.126 18.126 22.5 12.75 22.5ZM14.0355 7.5C15.3945 7.5 16.5 8.5095 16.5 9.75C16.5 9.94891 16.579 10.1397 16.7197 10.2803C16.8603 10.421 17.0511 10.5 17.25 10.5C17.4489 10.5 17.6397 10.421 17.7803 10.2803C17.921 10.1397 18 9.94891 18 9.75C18 7.6815 16.221 6 14.0355 6H13.5V5.25C13.5 5.05109 13.421 4.86032 13.2803 4.71967C13.1397 4.57902 12.9489 4.5 12.75 4.5C12.5511 4.5 12.3603 4.57902 12.2197 4.71967C12.079 4.86032 12 5.05109 12 5.25V6H11.4645C9.279 6 7.5 7.6815 7.5 9.75C7.5 11.8185 9.279 13.5 11.4645 13.5H12V18H11.4645C10.1055 18 9 16.9905 9 15.75C9 15.5511 8.92098 15.3603 8.78033 15.2197C8.63968 15.079 8.44891 15 8.25 15C8.05109 15 7.86032 15.079 7.71967 15.2197C7.57902 15.3603 7.5 15.5511 7.5 15.75C7.5 17.8185 9.279 19.5 11.4645 19.5H12V20.25C12 20.4489 12.079 20.6397 12.2197 20.7803C12.3603 20.921 12.5511 21 12.75 21C12.9489 21 13.1397 20.921 13.2803 20.7803C13.421 20.6397 13.5 20.4489 13.5 20.25V19.5H14.0355C16.221 19.5 18 17.8185 18 15.75C18 13.6815 16.221 12 14.0355 12H13.5V7.5H14.0355ZM14.0355 13.5C15.3945 13.5 16.5 14.5095 16.5 15.75C16.5 16.9905 15.3945 18 14.0355 18H13.5V13.5H14.0355ZM12 12H11.4645C10.1055 12 9 10.9905 9 9.75C9 8.5095 10.1055 7.5 11.4645 7.5H12V12Z" fill="black"/>
</svg>
