<svg width="24" height="24" viewBox="0 0 24 24" fill="none" xmlns="http://www.w3.org/2000/svg">
<path d="M18.1499 9.14496L17.8499 18.2252C17.8243 19.0029 17.4967 19.74 16.9366 20.2801C16.3765 20.8202 15.628 21.1207 14.8499 21.118H9.1499C8.37232 21.1207 7.62421 20.8206 7.06418 20.2811C6.50415 19.7417 6.17622 19.0054 6.1499 18.2282L5.8499 9.14496C5.84333 8.94604 5.91606 8.75267 6.05207 8.60738C6.18808 8.46208 6.37624 8.37677 6.57515 8.37021C6.77406 8.36364 6.96743 8.43637 7.11273 8.57238C7.25802 8.70839 7.34333 8.89654 7.3499 9.09546L7.6499 18.178C7.66484 18.5657 7.82944 18.9325 8.10914 19.2015C8.38885 19.4704 8.76188 19.6205 9.1499 19.6202H14.8499C15.2384 19.6205 15.6119 19.47 15.8917 19.2004C16.1714 18.9308 16.3357 18.5632 16.3499 18.175L16.6499 9.09546C16.6565 8.89654 16.7418 8.70839 16.8871 8.57238C17.0324 8.43637 17.2257 8.36364 17.4246 8.37021C17.6236 8.37677 17.8117 8.46208 17.9477 8.60738C18.0837 8.75267 18.1565 8.94604 18.1499 9.14496ZM19.1421 6.12321C19.1421 6.32212 19.0631 6.51288 18.9225 6.65354C18.7818 6.79419 18.5911 6.87321 18.3921 6.87321H5.6084C5.40949 6.87321 5.21872 6.79419 5.07807 6.65354C4.93742 6.51288 4.8584 6.32212 4.8584 6.12321C4.8584 5.92429 4.93742 5.73353 5.07807 5.59288C5.21872 5.45222 5.40949 5.37321 5.6084 5.37321H7.9334C8.17103 5.37385 8.40041 5.28605 8.57688 5.1269C8.75336 4.96776 8.86431 4.74864 8.88815 4.51221C8.94349 3.95757 9.20334 3.4434 9.61707 3.06989C10.0308 2.69637 10.5688 2.49026 11.1261 2.49171H12.8736C13.431 2.49026 13.969 2.69637 14.3827 3.06989C14.7965 3.4434 15.0563 3.95757 15.1116 4.51221C15.1355 4.74864 15.2464 4.96776 15.4229 5.1269C15.5994 5.28605 15.8288 5.37385 16.0664 5.37321H18.3914C18.5903 5.37321 18.7811 5.45222 18.9217 5.59288C19.0624 5.73353 19.1414 5.92429 19.1414 6.12321H19.1421ZM10.1901 5.37321H13.8111C13.7126 5.14801 13.6481 4.90939 13.6199 4.66521C13.6013 4.48034 13.5148 4.30895 13.377 4.18424C13.2393 4.05953 13.0602 3.99039 12.8744 3.99021H11.1269C10.9411 3.99039 10.762 4.05953 10.6242 4.18424C10.4865 4.30895 10.4 4.48034 10.3814 4.66521C10.3529 4.90943 10.289 5.14805 10.1901 5.37321ZM10.9454 16.7365V10.3502C10.9454 10.1513 10.8664 9.96053 10.7257 9.81988C10.5851 9.67922 10.3943 9.60021 10.1954 9.60021C9.99649 9.60021 9.80572 9.67922 9.66507 9.81988C9.52442 9.96053 9.4454 10.1513 9.4454 10.3502V16.7395C9.4454 16.9384 9.52442 17.1291 9.66507 17.2698C9.80572 17.4104 9.99649 17.4895 10.1954 17.4895C10.3943 17.4895 10.5851 17.4104 10.7257 17.2698C10.8664 17.1291 10.9454 16.9384 10.9454 16.7395V16.7365ZM14.5559 16.7365V10.3502C14.5559 10.1513 14.4769 9.96053 14.3362 9.81988C14.1956 9.67922 14.0048 9.60021 13.8059 9.60021C13.607 9.60021 13.4162 9.67922 13.2756 9.81988C13.1349 9.96053 13.0559 10.1513 13.0559 10.3502V16.7395C13.0559 16.9384 13.1349 17.1291 13.2756 17.2698C13.4162 17.4104 13.607 17.4895 13.8059 17.4895C14.0048 17.4895 14.1956 17.4104 14.3362 17.2698C14.4769 17.1291 14.5559 16.9384 14.5559 16.7395V16.7365Z" fill="#D30000"/>
</svg>
