<svg width="25" height="24" viewBox="0 0 25 24" fill="none" xmlns="http://www.w3.org/2000/svg">
<g clip-path="url(#clip0_17_4300)">
<path d="M24.4873 12.2244C24.4873 11.2412 24.4057 10.5236 24.229 9.77954H12.739V14.2175H19.4834C19.3475 15.3204 18.6132 16.9814 16.9815 18.0975L16.9586 18.246L20.5915 20.9962L20.8432 21.0208C23.1547 18.9346 24.4873 15.8652 24.4873 12.2244Z" fill="#4285F4"/>
<path d="M12.739 23.9176C16.0432 23.9176 18.8171 22.8545 20.8432 21.0209L16.9814 18.0976C15.948 18.8018 14.5611 19.2934 12.739 19.2934C9.50283 19.2934 6.75615 17.2074 5.77703 14.324L5.63351 14.3359L1.85597 17.1927L1.80656 17.3269C3.81898 21.2334 7.95265 23.9176 12.739 23.9176Z" fill="#34A853"/>
<path d="M5.77704 14.324C5.51869 13.58 5.36917 12.7826 5.36917 11.9589C5.36917 11.135 5.51869 10.3378 5.76344 9.59366L5.7566 9.43519L1.93171 6.53247L1.80657 6.59064C0.977156 8.21174 0.501236 10.0322 0.501236 11.9589C0.501236 13.8855 0.977156 15.7059 1.80657 17.327L5.77704 14.324Z" fill="#FBBC05"/>
<path d="M12.739 4.62403C15.037 4.62403 16.5871 5.59402 17.4709 6.40461L20.9247 3.10928C18.8036 1.1826 16.0432 0 12.739 0C7.95265 0 3.81898 2.68406 1.80656 6.59056L5.76344 9.59359C6.75615 6.7102 9.50283 4.62403 12.739 4.62403Z" fill="#EB4335"/>
</g>
<defs>
<clipPath id="clip0_17_4300">
<rect width="24" height="24" fill="white" transform="translate(0.5)"/>
</clipPath>
</defs>
</svg>
