<svg width="18" height="18" viewBox="0 0 18 18" fill="none" xmlns="http://www.w3.org/2000/svg">
<path d="M12.6346 2.8125C11.2488 2.8125 9.74429 3.43121 9 4.66875C8.25574 3.43121 6.7512 2.8125 5.36537 2.8125C2.94071 2.8125 1.125 4.33259 1.125 6.88286C1.125 7.98282 1.56663 9.41143 2.5637 10.5974C3.5607 11.7834 4.15378 12.4149 6.0847 13.6911C8.01562 14.9674 9 15.1875 9 15.1875C9 15.1875 9.98438 14.9674 11.9153 13.6911C13.8462 12.4149 14.4393 11.7834 15.4363 10.5974C16.4334 9.41143 16.875 7.98282 16.875 6.88286C16.875 4.33259 15.0593 2.8125 12.6346 2.8125Z" fill="#F14A00"/>
</svg>
