<svg width="22" height="22" viewBox="0 0 22 22" fill="none" xmlns="http://www.w3.org/2000/svg">
<path d="M20.8137 7.76746L11.4387 1.01746C11.311 0.925318 11.1575 0.875732 11 0.875732C10.8425 0.875732 10.689 0.925318 10.5612 1.01746L1.18625 7.76746C1.09001 7.83688 1.01162 7.92814 0.957508 8.03375C0.9034 8.13935 0.875123 8.2563 0.875 8.37496V20.375C0.875 20.5739 0.954018 20.7646 1.09467 20.9053C1.23532 21.0459 1.42609 21.125 1.625 21.125H20.375C20.5739 21.125 20.7647 21.0459 20.9053 20.9053C21.046 20.7646 21.125 20.5739 21.125 20.375V8.37496C21.1249 8.2563 21.0966 8.13935 21.0425 8.03375C20.9884 7.92814 20.91 7.83688 20.8137 7.76746ZM12.875 19.625H9.125V12.875H12.875V19.625ZM19.625 19.625H14.375V12.125C14.375 11.926 14.296 11.7353 14.1553 11.5946C14.0147 11.454 13.8239 11.375 13.625 11.375H8.375C8.17609 11.375 7.98532 11.454 7.84467 11.5946C7.70402 11.7353 7.625 11.926 7.625 12.125V19.625H2.375V8.74996L11 2.54746L19.625 8.74996V19.625Z" fill="black"/>
</svg>
