<svg width="24" height="24" viewBox="0 0 24 24" fill="none" xmlns="http://www.w3.org/2000/svg">
<g clip-path="url(#clip0_22_9869)">
<path d="M10.5 13.3125C10.6989 13.3125 10.8897 13.2335 11.0303 13.0928C11.171 12.9522 11.25 12.7614 11.25 12.5625C11.25 12.3636 11.171 12.1728 11.0303 12.0322C10.8897 11.8915 10.6989 11.8125 10.5 11.8125C9.7644 11.8229 9.03546 11.6719 8.36444 11.3703C9.12584 10.5338 9.67821 9.52871 9.97627 8.4375H10.5C10.6989 8.4375 10.8897 8.35848 11.0303 8.21783C11.171 8.07718 11.25 7.88641 11.25 7.6875C11.25 7.48859 11.171 7.29782 11.0303 7.15717C10.8897 7.01652 10.6989 6.9375 10.5 6.9375H7.875V6.1875C7.875 5.98859 7.79598 5.79782 7.65533 5.65717C7.51468 5.51652 7.32391 5.4375 7.125 5.4375C6.92609 5.4375 6.73532 5.51652 6.59467 5.65717C6.45402 5.79782 6.375 5.98859 6.375 6.1875V6.9375H3.75C3.55109 6.9375 3.36032 7.01652 3.21967 7.15717C3.07902 7.29782 3 7.48859 3 7.6875C3 7.88641 3.07902 8.07718 3.21967 8.21783C3.36032 8.35848 3.55109 8.4375 3.75 8.4375H8.3985C8.13226 9.21033 7.69879 9.91491 7.129 10.501C6.75449 10.1229 6.43996 9.68977 6.19629 9.21663C6.15098 9.12906 6.08884 9.05128 6.01343 8.98775C5.93803 8.92421 5.85083 8.87618 5.75684 8.84638C5.66285 8.81659 5.5639 8.80562 5.46567 8.81411C5.36743 8.8226 5.27183 8.85038 5.18434 8.89585C5.09686 8.94133 5.0192 9.00362 4.95581 9.07914C4.89242 9.15467 4.84454 9.24195 4.81493 9.336C4.78531 9.43005 4.77453 9.52902 4.7832 9.62724C4.79188 9.72546 4.81984 9.821 4.86548 9.9084C5.13813 10.4382 5.47779 10.9308 5.8761 11.3739C5.20806 11.674 4.48227 11.8237 3.75 11.8125C3.55109 11.8125 3.36032 11.8915 3.21967 12.0322C3.07902 12.1728 3 12.3636 3 12.5625C3 12.7614 3.07902 12.9522 3.21967 13.0928C3.36032 13.2335 3.55109 13.3125 3.75 13.3125C4.9338 13.3349 6.09982 13.0222 7.11344 12.4102C8.13356 13.0268 9.30832 13.3398 10.5 13.3125Z" fill="black"/>
<path d="M23.25 7.6875H15.75C15.5511 7.6875 15.3603 7.76652 15.2197 7.90717C15.079 8.04782 15 8.23859 15 8.4375C15 8.63641 15.079 8.82718 15.2197 8.96783C15.3603 9.10848 15.5511 9.1875 15.75 9.1875H22.5V20.0625H11.7923L14.1511 15.9346C14.2116 15.8195 14.2453 15.6924 14.25 15.5625V3.1875C14.25 2.98859 14.171 2.79783 14.0303 2.65718C13.8897 2.51653 13.6989 2.43751 13.5 2.4375H0.75C0.551091 2.43751 0.360331 2.51653 0.219681 2.65718C0.0790308 2.79783 9.94472e-06 2.98859 0 3.1875L0 15.5625C9.94472e-06 15.7614 0.0790308 15.9522 0.219681 16.0928C0.360331 16.2335 0.551091 16.3125 0.75 16.3125H9.75V20.8125C9.75312 21.0106 9.83323 21.1996 9.97335 21.3396C10.1135 21.4796 10.3026 21.5596 10.5007 21.5625H23.25C23.4489 21.5625 23.6397 21.4835 23.7803 21.3428C23.921 21.2022 24 21.0114 24 20.8125V8.4375C24 8.23859 23.921 8.04783 23.7803 7.90718C23.6397 7.76653 23.4489 7.68751 23.25 7.6875ZM1.5 3.9375H12.75V14.8125H1.5V3.9375ZM12.2077 16.3125L11.25 17.9885V16.3125H12.2077Z" fill="black"/>
<path d="M15.75 15.1875V17.8125C15.75 18.0114 15.829 18.2022 15.9697 18.3428C16.1103 18.4835 16.3011 18.5625 16.5 18.5625C16.6989 18.5625 16.8897 18.4835 17.0303 18.3428C17.171 18.2022 17.25 18.0114 17.25 17.8125V17.0625H19.5V17.8125C19.5 18.0114 19.579 18.2022 19.7197 18.3428C19.8603 18.4835 20.0511 18.5625 20.25 18.5625C20.4489 18.5625 20.6397 18.4835 20.7803 18.3428C20.921 18.2022 21 18.0114 21 17.8125V15.1875C21 14.4913 20.7234 13.8236 20.2312 13.3313C19.7389 12.8391 19.0712 12.5625 18.375 12.5625C17.6788 12.5625 17.0111 12.8391 16.5188 13.3313C16.0266 13.8236 15.75 14.4913 15.75 15.1875ZM18.375 14.0625C18.6733 14.0628 18.9592 14.1815 19.1701 14.3924C19.381 14.6033 19.4997 14.8892 19.5 15.1875V15.5625H17.25V15.1875C17.2503 14.8892 17.369 14.6033 17.5799 14.3924C17.7908 14.1815 18.0767 14.0628 18.375 14.0625Z" fill="black"/>
<path d="M18.375 11.8125C18.7892 11.8125 19.125 11.4767 19.125 11.0625C19.125 10.6483 18.7892 10.3125 18.375 10.3125C17.9608 10.3125 17.625 10.6483 17.625 11.0625C17.625 11.4767 17.9608 11.8125 18.375 11.8125Z" fill="black"/>
</g>
<defs>
<clipPath id="clip0_22_9869">
<rect width="24" height="24" fill="white"/>
</clipPath>
</defs>
</svg>
