<svg width="24" height="24" viewBox="0 0 24 24" fill="none" xmlns="http://www.w3.org/2000/svg">
<path d="M18.8161 22.4573H5.19097C4.22346 22.4573 3.29558 22.0729 2.61144 21.3888C1.92731 20.7046 1.54297 19.7768 1.54297 18.8093V5.18411C1.54479 4.21779 1.92993 3.29167 2.61386 2.60902C3.2978 1.92637 4.22465 1.54297 5.19097 1.54297H18.8161C19.2943 1.54297 19.7678 1.63715 20.2095 1.82013C20.6513 2.00312 21.0527 2.27132 21.3908 2.60943C21.7289 2.94755 21.9971 3.34894 22.1801 3.79071C22.3631 4.23247 22.4573 4.70595 22.4573 5.18411V18.8093C22.4573 19.7756 22.0739 20.7024 21.3912 21.3864C20.7086 22.0703 19.7824 22.4554 18.8161 22.4573ZM5.19097 3.25725C4.93735 3.25635 4.68606 3.30553 4.45149 3.40195C4.21692 3.49838 4.00369 3.64017 3.82404 3.81919C3.64439 3.9982 3.50184 4.21092 3.40458 4.44515C3.30732 4.67937 3.25725 4.9305 3.25725 5.18411V18.8093C3.25725 19.3221 3.46098 19.814 3.82363 20.1766C4.18627 20.5392 4.67812 20.743 5.19097 20.743H18.8161C19.0697 20.743 19.3209 20.6929 19.5551 20.5956C19.7893 20.4984 20.002 20.3558 20.181 20.1762C20.3601 19.9965 20.5018 19.7833 20.5983 19.5487C20.6947 19.3142 20.7439 19.0629 20.743 18.8093V5.18411C20.743 4.67308 20.54 4.18297 20.1786 3.82162C19.8172 3.46026 19.3271 3.25725 18.8161 3.25725H5.19097Z" fill="black"/>
<path d="M9.27086 12.8573C9.03414 12.8565 8.80034 12.805 8.58514 12.7064C8.28417 12.5697 8.02936 12.3485 7.85164 12.0698C7.67393 11.791 7.58095 11.4667 7.584 11.1361V2.40011C7.584 2.17278 7.67431 1.95477 7.83505 1.79402C7.9958 1.63327 8.21381 1.54297 8.44114 1.54297C8.66847 1.54297 8.88649 1.63327 9.04723 1.79402C9.20798 1.95477 9.29829 2.17278 9.29829 2.40011V11.1361L10.9097 9.70983C11.2126 9.43946 11.6043 9.29003 12.0103 9.29003C12.4163 9.29003 12.808 9.43946 13.1109 9.70983L14.7634 11.143L14.7086 2.40011C14.7086 2.17278 14.7989 1.95477 14.9596 1.79402C15.1204 1.63327 15.3384 1.54297 15.5657 1.54297C15.793 1.54297 16.0111 1.63327 16.1718 1.79402C16.3326 1.95477 16.4229 2.17278 16.4229 2.40011V11.1361C16.4259 11.4667 16.3329 11.791 16.1552 12.0698C15.9775 12.3485 15.7227 12.5697 15.4217 12.7064C15.1297 12.8407 14.8049 12.8869 14.487 12.8394C14.1691 12.7919 13.872 12.6528 13.632 12.439L12 11.0264L10.368 12.4458C10.0648 12.7124 9.67455 12.8587 9.27086 12.8573ZM13.0286 18.2195H6.85714C6.62981 18.2195 6.4118 18.1292 6.25105 17.9685C6.09031 17.8077 6 17.5897 6 17.3624C6 17.1351 6.09031 16.9171 6.25105 16.7563C6.4118 16.5956 6.62981 16.5053 6.85714 16.5053H13.0286C13.2559 16.5053 13.4739 16.5956 13.6347 16.7563C13.7954 16.9171 13.8857 17.1351 13.8857 17.3624C13.8857 17.5897 13.7954 17.8077 13.6347 17.9685C13.4739 18.1292 13.2559 18.2195 13.0286 18.2195Z" fill="black"/>
</svg>
