<svg width="24" height="24" viewBox="0 0 24 24" fill="none" xmlns="http://www.w3.org/2000/svg">
<path d="M9.81022 18.0861C5.24691 18.0861 1.53436 14.3735 1.53436 9.81021C1.53436 5.2469 5.24691 1.53435 9.81022 1.53435C14.3735 1.53435 18.0861 5.2469 18.0861 9.81021C18.0861 14.3735 14.3735 18.0861 9.81022 18.0861ZM9.81022 3.18952C6.15974 3.18952 3.18954 6.15973 3.18954 9.81021C3.18954 13.4607 6.15974 16.4309 9.81022 16.4309C13.4607 16.4309 16.4309 13.4607 16.4309 9.81021C16.4309 6.15973 13.4615 3.18952 9.81022 3.18952Z" fill="black"/>
<path d="M21.6381 22.4657C21.5294 22.4658 21.4218 22.4444 21.3213 22.4028C21.2209 22.3612 21.1297 22.3001 21.053 22.2232L14.6855 15.8557C14.6087 15.7789 14.5477 15.6877 14.5062 15.5873C14.4646 15.4869 14.4432 15.3793 14.4432 15.2706C14.4432 15.162 14.4646 15.0544 14.5062 14.954C14.5477 14.8536 14.6087 14.7624 14.6855 14.6855C14.7624 14.6087 14.8536 14.5477 14.954 14.5061C15.0544 14.4646 15.162 14.4432 15.2706 14.4432C15.3793 14.4432 15.4869 14.4646 15.5873 14.5061C15.6877 14.5477 15.7789 14.6087 15.8557 14.6855L22.2232 21.053C22.3393 21.1686 22.4185 21.316 22.4506 21.4767C22.4827 21.6373 22.4664 21.8039 22.4037 21.9553C22.3411 22.1066 22.2348 22.236 22.0985 22.3268C21.9622 22.4177 21.8019 22.466 21.6381 22.4657Z" fill="black"/>
</svg>
