<svg xmlns="http://www.w3.org/2000/svg" enable-background="new 0 0 32 32" viewBox="0 0 32 32"><path d="M16,27.1c-0.2,0-0.4-0.1-0.6-0.2c-7-4.9-10.6-9.5-11-13.9l0-1.3C4.8,7.4,7.6,5.2,10.1,5c3.1-0.3,4.6,0.7,5.9,2
					c1.3-1.3,2.9-2.3,5.9-2l0,0c2.5,0.2,5.3,2.4,5.7,6.6l0,1.3c-0.3,4.5-3.9,9-11,14C16.4,27,16.2,27.1,16,27.1z M11.1,6.9
					c-0.3,0-0.6,0-0.9,0c-1.7,0.2-3.6,1.7-3.9,4.8l0,1.1c0.3,3.5,3.5,7.6,9.6,11.9c6.1-4.4,9.3-8.4,9.6-12l0-1.1
					c-0.2-3-2.2-4.6-3.9-4.7l0,0c-2.4-0.2-3.5,0.4-4.9,2.2c-0.2,0.2-0.5,0.4-0.8,0.4l0,0c-0.3,0-0.6-0.1-0.8-0.4
					C13.9,7.6,13,6.9,11.1,6.9z"/></svg>